<svg xmlns="http://www.w3.org/2000/svg" xmlns:xlink="http://www.w3.org/1999/xlink" width="990px" height="580px" viewBox="0 0 990 580" preserveAspectRatio="xMidYMid meet" ><rect id="svgEditorBackground" x="0" y="0" width="990" height="580" style="fill: none; stroke: none;"/><ellipse id="e7_ellipse" cx="435" cy="298" style="fill:black;stroke:none;stroke-width:1px;" rx="121.806" ry="66.6637"/><rect x="421.8584899902" y="51.254714965800005" style="fill:black;stroke:none;stroke-width:1px;" id="e9_rectangle" width="30" height="228"/><path d="M429.8584899902,51.2547149658" style="stroke:black;fill:none;stroke-width:1px;" id="e12_curve2"/><path d="M561.8584594727,65.2547149658" style="stroke:black;fill:none;stroke-width:1px;" id="e14_curve2"/><path d="M443.8584899902,49.2547149658c-47.618584839565585,-11.636320712679677,-76.78643863093123,-10.228010017059361,-114.99999999993122,64.00000000004061c104.78643863106561,-83.77198998292033,119.50498752456565,-18.17656911082031,115,-81c-1.5049875245687758,-3.823430889240626,10.420699677831237,49.84216152175938,-10.00000000003439,14.999999999979678" style="stroke:none;fill:black;stroke-width:1px;" id="e16_curve3"/><path d="M433.8584899902,28.254714965799998c-47.618584839565585,-11.63632071267969,-76.78643863093123,-10.228010017059376,-114.99999999993122,64.00000000004059c104.78643863106561,-83.7719899829203,119.50498752456565,-18.17656911082028,115,-80.99999999999997c-1.5049875245687758,-3.823430889240626,10.420699677831237,49.84216152175938,-10.00000000003439,14.999999999979693" style="stroke:none;fill:black;stroke-width:1px;" id="e1_curve3" transform="matrix(0.916568 0.201696 -0.201696 0.916568 45.7761 -69.7861)"/><path d="M423.8584899902,3.2547149657999888c-47.618584839565585,-11.636320712679675,-76.78643863093123,-10.22801001705936,-114.99999999993122,64.00000000004061c104.78643863106561,-83.77198998292033,119.50498752456565,-18.176569110820317,115,-81c-1.5049875245687758,-3.823430889240626,10.420699677831237,49.84216152175938,-10.00000000003439,14.999999999979675" style="stroke:none;fill:black;stroke-width:1px;" id="e2_curve3" transform="matrix(0.828059 0.558421 -0.577832 0.769558 99.1087 -189.469)"/><path d="M427.8584899902,62.2547149658q10.01779843349999,-0.8023182328999994,34.00000000003439,5.000000000020314t49.999969482500035,26t0.00003051756857530563,-15.999999999959385t-87.000000000103,-39.00000000006092" style="stroke:none;fill:black;stroke-width:1px;" id="e22_curveS2" transform="matrix(0.997871 0.0652142 -0.0652142 0.997871 10.5349 -27.8201)"/><path d="M439.2869627944828,48.110155471377624q10.017798433500047,-0.8023182329000349,34.00000000003445,5.00000000002035t49.99996948249992,25.9999999999999t0.00003051756857530563,-15.999999999959343t-87.00000000010294,-39.000000000060965" style="stroke:none;fill:black;stroke-width:1px;" id="e14_curveS2" transform="matrix(0.988411 -0.1518 0.1518 0.988411 -1.84979 77.2347)"/><path d="M436.4307707219887,29.830858607106705q10.017798433500047,-0.8023182329000349,34.00000000003445,5.00000000002035t49.99996948249924,25.9999999999999t0.00003051756857530563,-15.999999999959343t-87.00000000010226,-39.000000000060965" style="stroke:none;fill:black;stroke-width:1px;" id="e15_curveS2" transform="matrix(0.923511 -0.383571 0.383571 0.923511 21.9617 187.679)"/></svg>