<svg xmlns="http://www.w3.org/2000/svg" xmlns:xlink="http://www.w3.org/1999/xlink" width="990px" height="580px" viewBox="0 0 990 580" preserveAspectRatio="xMidYMid meet" ><rect id="svgEditorBackground" x="0" y="0" width="990" height="580" style="fill: none; stroke: none;"/><path d="M446,402q-24.107821216899993,-91.68190064599997,-2,-230q45.7666349726,-24.568407189499993,32,226q-35.90160346900001,0.8465789110999822,-39,-1" style="stroke:black;fill:black;stroke-width:1px;" id="e2_curve2"/><path d="M436,283q-13.521401913799991,1.739825885900018,-31,-7t-15,-40t19,7t34,18" style="stroke:none;fill:black;stroke-width:1px;" id="e6_curveS2"/><path d="M478,334q9.95011135279998,-1.3543977479999967,28,-11t10,-37t-15,5t-30,30" style="stroke:none;fill:black;stroke-width:1px;" id="e8_curveS2"/><path d="M471,263q9.95011135279998,-1.3543977479999967,28,-11t10,-37t-15,5t-30,30" style="stroke:none;fill:black;stroke-width:1px;" id="e7_curveS2"/><line id="e9_line" x1="432" y1="183" x2="442" y2="186" style="stroke:black;fill:none;stroke-width:2px;"/><line id="e2_line" x1="442" y1="193" x2="452" y2="196" style="stroke:black;fill:none;stroke-width:2px;"/><line id="e14_line" x1="452" y1="203" x2="462" y2="206" style="stroke:black;fill:none;stroke-width:2px;"/><line id="e1_line" x1="462" y1="213" x2="472" y2="216" style="stroke:black;fill:none;stroke-width:2px;"/><line id="e3_line" x1="509" y1="234" x2="519" y2="237" style="stroke:black;fill:none;stroke-width:2px;"/><line id="e4_line" x1="403" y1="291" x2="413" y2="294" style="stroke:black;fill:none;stroke-width:2px;" transform="matrix(0.118435 0.993934 -0.993934 0.118435 651.436 -155.692)"/><line id="e5_line" x1="429" y1="214" x2="439" y2="217" style="stroke:black;fill:none;stroke-width:2px;"/><line id="e6_line" x1="427" y1="240" x2="437" y2="243" style="stroke:black;fill:none;stroke-width:2px;"/><line id="e7_line" x1="426" y1="255" x2="436" y2="258" style="stroke:black;fill:none;stroke-width:2px;"/><line id="e8_line" x1="469" y1="195" x2="479" y2="198" style="stroke:black;fill:none;stroke-width:2px;"/><line id="e10_line" x1="478" y1="284" x2="488" y2="287" style="stroke:black;fill:none;stroke-width:2px;" transform="matrix(0.978074 -0.208257 0.208257 0.978074 -48.8672 106.848)"/><line id="e11_line" x1="474.9503479003906" y1="302.46795654296875" x2="484.9503479003906" y2="305.46795654296875" style="stroke:black;fill:none;stroke-width:2px;" transform="matrix(0.978074 -0.208257 0.208257 0.978074 -48.8672 106.848)"/><line id="e12_line" x1="498.04443359375" y1="284.58343505859375" x2="508.04449462890625" y2="287.58343505859375" style="stroke:black;fill:none;stroke-width:2px;" transform="matrix(0.978074 -0.208257 0.208257 0.978074 -48.8672 106.848)"/><line id="e13_line" x1="510.7890625" y1="310.5041809082031" x2="520.7892456054688" y2="313.5041809082031" style="stroke:black;fill:none;stroke-width:2px;" transform="matrix(0.978074 -0.208257 0.208257 0.978074 -48.8672 106.848)"/><line id="e15_line" x1="492.44342041015625" y1="328.7826843261719" x2="502.44354248046875" y2="331.7826843261719" style="stroke:black;fill:none;stroke-width:2px;" transform="matrix(0.978074 -0.208257 0.208257 0.978074 -48.8672 106.848)"/><line id="e16_line" x1="462.0262145996094" y1="355.73724365234375" x2="472.0263366699219" y2="358.73724365234375" style="stroke:black;fill:none;stroke-width:2px;" transform="matrix(0.978074 -0.208257 0.208257 0.978074 -48.8672 106.848)"/><line id="e17_line" x1="413.67657470703125" y1="342.0663146972656" x2="423.67669677734375" y2="345.0663146972656" style="stroke:black;fill:none;stroke-width:2px;" transform="matrix(0.978074 -0.208257 0.208257 0.978074 -48.8672 106.848)"/><line id="e18_line" x1="422.687255859375" y1="289.4881591796875" x2="432.6873779296875" y2="292.4881591796875" style="stroke:black;fill:none;stroke-width:2px;" transform="matrix(0.978074 -0.208257 0.208257 0.978074 -48.8672 106.848)"/><line id="e19_line" x1="393.0546875" y1="221.5249786376953" x2="403.0548095703125" y2="224.5249786376953" style="stroke:black;fill:none;stroke-width:2px;" transform="matrix(0.978074 -0.208257 0.208257 0.978074 -48.8672 106.848)"/><line id="e20_line" x1="392.66766357421875" y1="246.69448852539062" x2="402.66778564453125" y2="249.69451904296875" style="stroke:black;fill:none;stroke-width:2px;" transform="matrix(0.978074 -0.208257 0.208257 0.978074 -48.8672 106.848)"/><line id="e21_line" x1="416.2414855957031" y1="221.7553253173828" x2="426.2416076660156" y2="224.75535583496094" style="stroke:black;fill:none;stroke-width:2px;" transform="matrix(0.978074 -0.208257 0.208257 0.978074 -48.8672 106.848)"/><line id="e22_line" x1="488.23956298828125" y1="214.28367614746094" x2="498.23968505859375" y2="217.28370666503906" style="stroke:black;fill:none;stroke-width:2px;" transform="matrix(0.978074 -0.208257 0.208257 0.978074 -48.8672 106.848)"/><line id="e23_line" x1="484" y1="233" x2="494" y2="236" style="stroke:black;fill:none;stroke-width:2px;"/><line id="e24_line" x1="489" y1="212" x2="499" y2="215" style="stroke:black;fill:none;stroke-width:2px;"/><line id="e25_line" x1="426" y1="337" x2="436" y2="340" style="stroke:black;fill:none;stroke-width:2px;"/><line id="e26_line" x1="436" y1="347" x2="446" y2="350" style="stroke:black;fill:none;stroke-width:2px;"/></svg>