<svg aria-hidden="true" style="position: absolute; width: 0; height: 0; overflow: hidden;" version="1.1" xmlns="http://www.w3.org/2000/svg" xmlns:xlink="http://www.w3.org/1999/xlink">
<defs>
<symbol id="icon-beach" viewBox="0 0 55 32">
<title>beach</title>
<path d="M30.72 16.441c0 2.031-3.009 3.678-6.72 3.678s-6.72-1.647-6.72-3.678c0-2.031 3.009-3.678 6.72-3.678s6.72 1.647 6.72 3.678z"></path>
<path d="M23.275 2.828h1.655v12.579h-1.655v-12.579z"></path>
<path d="M24.489 2.717c-2.627-0.642-4.236-0.564-6.345 3.531 5.781-4.622 6.593-1.003 6.345-4.469-0.083-0.211 0.575 2.75-0.552 0.828z"></path>
<path d="M24.151 2.407c-2.279-1.118-3.769-1.372-6.528 1.957 6.231-3.070 6.246 0.411 6.717-2.816-0.034-0.21-0.028 2.636-0.673 0.647z"></path>
<path d="M24.729 2.744c-1.805-1.961-3.182-2.8-7.294-0.826 7.458-0.328 6.039 2.91 7.836 0.104 0.053-0.209-1.113 2.437-0.935 0.329z"></path>
<path d="M23.913 3.432q0.554-0.008 1.854 0.398t2.659 1.611 0.058-0.881-4.649-2.46z"></path>
<path d="M24.257 3.206q0.54-0.128 1.896-0.012t2.944 0.999-0.134-0.873-5.071-1.398z"></path>
<path d="M24.080 2.639q0.493-0.253 1.838-0.465t3.098 0.267-0.339-0.815-5.258-0.146z"></path>
</symbol>
<symbol id="icon-city" viewBox="0 0 55 32">
<title>city</title>
<path d="M16 9.766h3.034v7.283h-3.034v-7.283z"></path>
<path d="M22.014 10.538h2.041v6.51h-2.041v-6.51z"></path>
<path d="M19.2 7.834h2.538v9.269h-2.538v-9.269z"></path>
<path d="M20.469 5.848l-1.269 2.198h2.538z"></path>
<path d="M15.062 12.303h1.931v4.745h-1.931v-4.745z"></path>
</symbol>
<symbol id="icon-desert" viewBox="0 0 55 32">
<title>desert</title>
<path d="M24.607 22.179q-1.33-5.058-0.11-12.69 2.525-1.355 1.766 12.469-1.981 0.047-2.152-0.055"></path>
<path d="M24.055 15.614q-0.746 0.096-1.71-0.386t-0.828-2.207 1.048 0.386 1.876 0.993z"></path>
<path d="M26.372 18.428q0.549-0.075 1.545-0.607t0.552-2.041-0.828 0.276-1.655 1.655z"></path>
<path d="M25.986 14.51q0.549-0.075 1.545-0.607t0.552-2.041-0.828 0.276-1.655 1.655z"></path>
</symbol>
<symbol id="icon-forrest" viewBox="0 0 55 32">
<title>forrest</title>
<path d="M24.138 9.103l-1.628 2.819h3.255z"></path>
<path d="M24.221 10.317l-2.869 4.066h5.572z"></path>
<path d="M24.193 11.31l-4 6.369h7.834z"></path>
<path d="M23.393 17.269h1.766v2.041h-1.766v-2.041z"></path>
</symbol>
<symbol id="icon-mountain2" viewBox="0 0 55 32">
<title>mountain2</title>
<path d="M20.193 10.152l-7.393 12.805h14.786z"></path>
<path d="M29.324 9.986l-7.476 12.948h14.952z"></path>
<path d="M24.359 7.448l-9.572 16.579h19.145z"></path>
</symbol>
</defs>
</svg>
